<svg version="1.2" xmlns="http://www.w3.org/2000/svg" viewBox="0 0 202 202" width="202" height="202">
	<title>logo-svg</title>
	<style>
		.s0 { fill: #040404 } 
	</style>
	<path id="Layer" class="s0" d="m29 181c6-0.3 12.2-1.3 18-3 4.3-1.3 8.4-2.8 12-5.5 23.2-17.1 9.6-46.8 15.2-70.5 5.8-24.5 25.4-44.3 49.8-50.5 6.6-1.7 13.2-1.5 20-1.5-4.6-7.1-16.2-10.1-24-12.1-28.1-7.4-59.1 2.6-76.5 26.1-14.6 19.6-14.5 40.7-14.5 64zm53-94c4.8-2.7 9.3-6.1 15-6.8 26-3.3 48.8 25.1 54.5 47.8 2.8 11.2 0.9 21.8-0.5 33 23.5-16.7 28.4-54.9 18-80-3.1-7.4-7.2-16.7-14-21.4-5-3.5-13.2-3.6-19-3.6-20 0-45.8 11.7-54 31zm48 16c0 10.8-2.1 20.2-11 27.3-5.1 4.1-11 5.4-15.1 10.7-9.4 12.4-9.1 25.3-7.9 40 16.4 0 40.3-2.7 51.4-16.6 3.3-4.1 2.6-10.5 2.6-15.4 0-12.3-3.1-23.4-9.3-34-2.7-4.7-5.8-9.5-10.7-12z"/>
</svg>